<svg xmlns="http://www.w3.org/2000/svg" width="680" viewBox="0 0 680 580" role="img">
<title>Atlas Ally logo</title>
<desc>Atlas Ally unified logo with teal shield, globe, gold pin, wordmark and tagline</desc>

<defs>
  <clipPath id="sc4">
    <path d="M340 28 L448 62 L448 200 Q448 300 340 356 Q232 300 232 200 L232 62 Z"/>
  </clipPath>
</defs>

<style>
  .wm  { font-family: 'Arial Black', Arial, sans-serif; font-weight: 900; letter-spacing: 7px; text-anchor: middle; }
  .tg  { font-family: Arial, sans-serif; font-weight: 400; letter-spacing: 3px; text-anchor: middle; font-style: italic; }
  .lbl { font-family: Arial, sans-serif; font-weight: 700; letter-spacing: 1.5px; font-size: 9px; text-anchor: middle; }
</style>

<!-- Shield base -->
<path d="M340 28 L448 62 L448 200 Q448 300 340 356 Q232 300 232 200 L232 62 Z" fill="#0E7490"/>

<g clip-path="url(#sc4)">
  <!-- Facets -->
  <polygon points="340,28 448,62 396,140" fill="#1590AE"/>
  <polygon points="340,28 232,62 284,140" fill="#1A9BBB"/>
  <polygon points="396,140 448,62 448,200" fill="#0A6882"/>
  <polygon points="284,140 232,62 232,200" fill="#0C708C"/>
  <polygon points="340,28 396,140 340,158 284,140" fill="#189AB8"/>
  <polygon points="396,140 448,200 388,230 340,218" fill="#0B6E8A"/>
  <polygon points="284,140 232,200 292,230 340,218" fill="#0D7694"/>
  <polygon points="340,218 388,230 340,296 292,230" fill="#0C7090"/>
  <polygon points="448,200 448,280 388,280 388,230" fill="#096580"/>
  <polygon points="232,200 232,280 292,280 292,230" fill="#0B6C88"/>
  <polygon points="388,280 448,280 420,330" fill="#086078"/>
  <polygon points="292,280 232,280 260,330" fill="#096278"/>
  <polygon points="340,296 388,280 420,330 340,356 260,330 292,280" fill="#0A6882"/>

  <!-- Facet lines -->
  <line x1="340" y1="28"  x2="396" y2="140" stroke="#67C8E0" stroke-width="0.8"/>
  <line x1="340" y1="28"  x2="284" y2="140" stroke="#67C8E0" stroke-width="0.8"/>
  <line x1="396" y1="140" x2="340" y2="218" stroke="#50BADA" stroke-width="0.6"/>
  <line x1="284" y1="140" x2="340" y2="218" stroke="#50BADA" stroke-width="0.6"/>
  <line x1="340" y1="218" x2="388" y2="230" stroke="#50BADA" stroke-width="0.5"/>
  <line x1="340" y1="218" x2="292" y2="230" stroke="#50BADA" stroke-width="0.5"/>
  <line x1="388" y1="230" x2="340" y2="296" stroke="#50BADA" stroke-width="0.5"/>
  <line x1="292" y1="230" x2="340" y2="296" stroke="#50BADA" stroke-width="0.5"/>
  <line x1="388" y1="230" x2="388" y2="280" stroke="#50BADA" stroke-width="0.5"/>
  <line x1="292" y1="230" x2="292" y2="280" stroke="#50BADA" stroke-width="0.5"/>

  <!-- Top gloss -->
  <polygon points="340,28 448,62 396,140 340,158 284,140 232,62" fill="white" opacity="0.07"/>

  <!-- Globe -->
  <circle cx="340" cy="210" r="84" fill="none" stroke="white" stroke-width="1.6" opacity="0.75"/>
  <line x1="256" y1="210" x2="424" y2="210" stroke="white" stroke-width="1.1" opacity="0.65"/>
  <ellipse cx="340" cy="210" rx="84" ry="27" fill="none" stroke="white" stroke-width="1"   opacity="0.6"/>
  <ellipse cx="340" cy="210" rx="84" ry="52" fill="none" stroke="white" stroke-width="0.9" opacity="0.5"/>
  <ellipse cx="340" cy="210" rx="84" ry="74" fill="none" stroke="white" stroke-width="0.7" opacity="0.35"/>
  <path d="M340 126 Q374 154 374 210 Q374 266 340 294" fill="none" stroke="white" stroke-width="1"   opacity="0.6"/>
  <path d="M340 126 Q306 154 306 210 Q306 266 340 294" fill="none" stroke="white" stroke-width="1"   opacity="0.6"/>
  <line x1="340" y1="126" x2="340" y2="294" stroke="white" stroke-width="0.8" opacity="0.45"/>
  <path d="M340 126 Q406 166 418 210 Q406 254 340 294" fill="none" stroke="white" stroke-width="0.7" opacity="0.35"/>
  <path d="M340 126 Q274 166 262 210 Q274 254 340 294" fill="none" stroke="white" stroke-width="0.7" opacity="0.35"/>

  <!-- Continent blobs -->
  <ellipse cx="320" cy="192" rx="18" ry="11" fill="white" opacity="0.28"/>
  <ellipse cx="360" cy="200" rx="13" ry="9"  fill="white" opacity="0.24"/>
  <ellipse cx="342" cy="230" rx="10" ry="7"  fill="white" opacity="0.2"/>
  <ellipse cx="300" cy="222" rx="8"  ry="6"  fill="white" opacity="0.18"/>
  <ellipse cx="378" cy="218" rx="7"  ry="5"  fill="white" opacity="0.16"/>

  <!-- Lock bottom-left -->
  <rect x="262" y="248" width="22" height="16" rx="3" fill="white" opacity="0.28"/>
  <path d="M267 248 L267 243 Q267 237 273 237 Q279 237 279 243 L279 248" fill="none" stroke="white" stroke-width="2" stroke-linecap="round" opacity="0.65"/>
  <circle cx="273" cy="255" r="2.5" fill="#F59E0B" opacity="0.95"/>

  <!-- Route bottom-right -->
  <circle cx="400" cy="248" r="3" fill="#F59E0B" opacity="0.9"/>
  <path d="M400 248 Q410 248 412 258 Q414 268 404 270" fill="none" stroke="white" stroke-width="1.2" opacity="0.55" stroke-linecap="round"/>
  <circle cx="404" cy="270" r="2.5" fill="white" opacity="0.65"/>

  <!-- Alert top-right -->
  <circle cx="410" cy="158" r="7" fill="none" stroke="#F59E0B" stroke-width="1" opacity="0.65"/>
  <circle cx="410" cy="158" r="3" fill="#F59E0B" opacity="0.95"/>

  <!-- Crosshair -->
  <circle cx="340" cy="174" r="22" fill="none" stroke="#F59E0B" stroke-width="1" opacity="0.65"/>
  <line x1="318" y1="174" x2="326" y2="174" stroke="#F59E0B" stroke-width="1.8" opacity="0.95"/>
  <line x1="354" y1="174" x2="362" y2="174" stroke="#F59E0B" stroke-width="1.8" opacity="0.95"/>
  <line x1="340" y1="152" x2="340" y2="160" stroke="#F59E0B" stroke-width="1.8" opacity="0.95"/>
  <line x1="340" y1="188" x2="340" y2="196" stroke="#F59E0B" stroke-width="1.8" opacity="0.95"/>
</g>

<!-- Shield outline -->
<path d="M340 28 L448 62 L448 200 Q448 300 340 356 Q232 300 232 200 L232 62 Z" fill="none" stroke="#67C8E0" stroke-width="2"/>
<path d="M340 28 L232 62 L232 150" fill="none" stroke="white" stroke-width="1.8" opacity="0.5"/>

<!-- Pin -->
<circle cx="340" cy="174" r="17" fill="#F59E0B"/>
<circle cx="340" cy="174" r="9"  fill="#0A5F75"/>
<circle cx="340" cy="174" r="4.5" fill="#F59E0B"/>
<path d="M331 187 Q340 206 349 187" fill="#F59E0B"/>

<!-- Diamond tip -->
<path d="M340 356 L327 374 L340 388 L353 374 Z" fill="#F59E0B"/>
<path d="M340 363 L332 374 L340 382 L348 374 Z" fill="#C87800"/>
<line x1="318" y1="374" x2="310" y2="374" stroke="#F59E0B" stroke-width="1.2" opacity="0.8"/>
<line x1="362" y1="374" x2="370" y2="374" stroke="#F59E0B" stroke-width="1.2" opacity="0.8"/>
<line x1="340" y1="392" x2="340" y2="400" stroke="#F59E0B" stroke-width="1.2" opacity="0.7"/>

<!-- Corner dots -->
<circle cx="232" cy="62" r="3.5" fill="#F59E0B" opacity="0.95"/>
<circle cx="448" cy="62" r="3.5" fill="#F59E0B" opacity="0.95"/>
<circle cx="340" cy="28"  r="3"  fill="#F59E0B" opacity="0.85"/>

<!-- Wordmark -->
<text x="340" y="436" class="wm" font-size="38" fill="#111111">ATLAS ALLY</text>
<rect x="210" y="444" width="102" height="2.5" rx="1.2" fill="#F59E0B"/>
<rect x="368" y="444" width="102" height="2.5" rx="1.2" fill="#F59E0B"/>
<polygon points="340,441 345,447 340,453 335,447" fill="#F59E0B"/>

<!-- Tagline -->
<text x="340" y="474" class="tg" font-size="13" fill="#0E7490">Know before you go.</text>

<!-- 5 micro icons -->
<!-- Safety -->
<path d="M150 492 L168 498 L168 516 Q168 526 150 532 Q132 526 132 516 L132 498 Z" fill="#0E7490" opacity="0.9"/>
<circle cx="150" cy="514" r="6" fill="none" stroke="white" stroke-width="0.9" opacity="0.7"/>
<circle cx="150" cy="510" r="2.5" fill="#F59E0B"/>
<path d="M147 514 Q150 520 153 514" fill="#F59E0B"/>
<text x="150" y="547" class="lbl" fill="#999999">SAFETY</text>

<!-- Globe icon -->
<circle cx="250" cy="512" r="14" fill="none" stroke="#0E7490" stroke-width="1.5" opacity="0.9"/>
<line x1="236" y1="512" x2="264" y2="512" stroke="#0E7490" stroke-width="1" opacity="0.75"/>
<ellipse cx="250" cy="512" rx="14" ry="5" fill="none" stroke="#0E7490" stroke-width="0.9" opacity="0.65"/>
<path d="M250 498 Q258 505 258 512 Q258 519 250 526" fill="none" stroke="#0E7490" stroke-width="0.9" opacity="0.65"/>
<path d="M250 498 Q242 505 242 512 Q242 519 250 526" fill="none" stroke="#0E7490" stroke-width="0.9" opacity="0.65"/>
<circle cx="250" cy="507" r="3" fill="#F59E0B"/>
<path d="M247 511 Q250 516 253 511" fill="#F59E0B"/>
<text x="250" y="547" class="lbl" fill="#999999">GLOBAL</text>

<!-- Alert -->
<circle cx="340" cy="512" r="14" fill="none" stroke="#F59E0B" stroke-width="1.2" opacity="0.55"/>
<circle cx="340" cy="512" r="8"  fill="none" stroke="#F59E0B" stroke-width="1.3" opacity="0.75"/>
<circle cx="340" cy="512" r="3.5" fill="#F59E0B" opacity="0.95"/>
<line x1="340" y1="494" x2="340" y2="499" stroke="#F59E0B" stroke-width="1.5"/>
<line x1="340" y1="525" x2="340" y2="530" stroke="#F59E0B" stroke-width="1.5"/>
<line x1="322" y1="512" x2="327" y2="512" stroke="#F59E0B" stroke-width="1.5"/>
<line x1="353" y1="512" x2="358" y2="512" stroke="#F59E0B" stroke-width="1.5"/>
<text x="340" y="547" class="lbl" fill="#999999">ALERTS</text>

<!-- Route -->
<circle cx="424" cy="500" r="3.5" fill="#0E7490" opacity="0.9"/>
<circle cx="424" cy="500" r="1.8" fill="white"/>
<path d="M424 504 Q424 514 436 514 Q448 514 448 524" fill="none" stroke="#0E7490" stroke-width="1.6" stroke-linecap="round" opacity="0.9"/>
<circle cx="448" cy="525" r="4.5" fill="#F59E0B"/>
<circle cx="448" cy="525" r="2.2" fill="#0A5F75"/>
<text x="436" y="547" class="lbl" fill="#999999">ROUTES</text>

<!-- Lock -->
<rect x="518" y="508" width="20" height="15" rx="3" fill="#0E7490" opacity="0.9"/>
<path d="M522 508 L522 502 Q522 496 528 496 Q534 496 534 502 L534 508" fill="none" stroke="#0E7490" stroke-width="2.2" stroke-linecap="round" opacity="0.9"/>
<circle cx="528" cy="515" r="3" fill="#F59E0B"/>
<text x="528" y="547" class="lbl" fill="#999999">SECURE</text>

<!-- Bottom rule -->
<line x1="160" y1="558" x2="520" y2="558" stroke="#DDDDDD" stroke-width="0.8"/>
<text x="340" y="576" class="lbl" fill="#aaaaaa" letter-spacing="3px">ATLAS-ALLY.COM</text>

</svg>
